<svg focusable="false" role="img" aria-label="CBC Kids News" xmlns="http://www.w3.org/2000/svg" xmlns:xlink="http://www.w3.org/1999/xlink" width="248px" height="125px" viewBox="0 0 248 125" version="1.1">
    <!-- Generator: Sketch 51.3 (57544) - http://www.bohemiancoding.com/sketch -->
    <title>CBC Kids News</title>
    <desc></desc>
    <defs></defs>
    <g id="Artboard" stroke="none" stroke-width="1" fill="none" fill-rule="evenodd">
        <path d="M246,102 L246,12 L12,12 L12,102 L40.8162338,102 L61.0121933,122.195959 L81.2081528,102 L246,102 Z" id="background-speechbox" stroke="#000000" stroke-width="4" fill="#0C8DCB" fill-rule="nonzero"></path>
        <path d="M236,92 L236,2 L2,2 L2,92 L30.8162338,92 L51.0121933,112.195959 L71.2081528,92 L236,92 Z" id="foreground-speechbox" stroke="#000000" stroke-width="4" fill="#FFFFFF" fill-rule="nonzero"></path>
        <g id="NEWS" transform="translate(89.188119, 45.076621)" fill="#000000">
            <path d="M5.63210297,30.9952058 C5.63210297,32.3506233 4.49768713,33.4797301 3.18279604,33.4797301 C1.77705347,33.4797301 0.689291089,32.3506233 0.689291089,30.9952058 L0.689291089,4.74439029 L0.689291089,4.69912816 C0.643865347,3.93089515 1.00604356,3.1174 1.68620198,2.62073981 C2.82061782,1.8525068 4.36263762,2.07759417 5.13364752,3.16266214 L19.7791525,23.3593612 L19.7791525,4.74439029 C19.7791525,3.43423495 20.8681426,2.30390485 22.2296871,2.30390485 C23.5887762,2.30390485 24.7231921,3.43423495 24.7231921,4.74439029 L24.7231921,30.9952058 C24.7231921,32.3506233 23.5887762,33.4797301 22.2296871,33.4797301 C21.5028752,33.4797301 20.8227168,33.1188563 20.3696871,32.576934 C20.2788356,32.4864097 20.1879842,32.3971087 20.1425584,32.3053612 L5.63210297,12.2444485 L5.63210297,30.9952058 Z" id="Fill-7"></path>
            <path d="M32.6588238,30.9952058 L32.6588238,4.33703107 C32.6588238,2.93635146 33.7465861,1.8525068 35.1523287,1.8525068 L35.1977545,1.8525068 L35.2886059,1.8525068 L49.9807644,1.8525068 C51.2956554,1.8525068 52.475497,2.93635146 52.475497,4.33703107 C52.475497,5.73893398 51.2956554,6.86681748 49.9807644,6.86681748 L37.6924871,6.86681748 L37.6924871,15.136332 L48.2570416,15.136332 C49.6173584,15.136332 50.7517743,16.310701 50.7517743,17.6208563 C50.7517743,19.0215359 49.6173584,20.151866 48.2570416,20.151866 L37.6924871,20.151866 L37.6924871,28.4654194 L49.9807644,28.4654194 C51.2956554,28.4654194 52.475497,29.5945262 52.475497,30.9952058 C52.475497,32.3506233 51.2956554,33.4797301 49.9807644,33.4797301 L35.2886059,33.4797301 C35.1977545,33.4797301 35.1977545,33.434468 35.1977545,33.434468 L35.1523287,33.4797301 C33.7465861,33.4797301 32.6588238,32.3506233 32.6588238,30.9952058" id="Fill-9"></path>
            <path d="M101.357279,5.6020466 L90.2476158,31.9433864 C90.2021901,32.0803961 90.1113386,32.2602214 90.0217149,32.3507456 L89.9750614,32.3960078 C89.9296356,32.486532 89.8387842,32.5770563 89.7491604,32.6675806 C89.7491604,32.7568816 89.7037347,32.7568816 89.7037347,32.8021437 C89.6128832,32.8474058 89.4766059,32.9379301 89.3857545,33.0284544 L89.3403287,33.0284544 C89.2052792,33.1189786 89.1132,33.2535417 88.9327248,33.3000272 L88.887299,33.3000272 C88.887299,33.3000272 88.8418733,33.3000272 88.8418733,33.3452893 C88.7510218,33.3452893 88.6147446,33.3905515 88.479695,33.4345903 L88.3888436,33.4345903 C88.2525663,33.4798524 88.1162891,33.4798524 87.9345861,33.4798524 C87.7983089,33.4798524 87.6632594,33.4798524 87.5257545,33.4345903 L87.390705,33.4345903 C87.2544277,33.3905515 87.1635762,33.3452893 87.0727248,33.3452893 C87.027299,33.3000272 87.027299,33.3000272 86.983101,33.3000272 C86.801398,33.2535417 86.6651208,33.1189786 86.5742693,33.0284544 L86.5288436,33.0284544 C86.3937941,32.9379301 86.3017149,32.8474058 86.2120911,32.8021437 C86.1666653,32.7568816 86.1666653,32.7568816 86.1212396,32.6675806 C86.0758139,32.5770563 85.9849624,32.486532 85.9395366,32.3960078 C85.8486851,32.3960078 85.8486851,32.3507456 85.8486851,32.3507456 C85.7578337,32.2602214 85.7136356,32.0803961 85.6682099,31.9433864 L79.7272594,17.9378136 L73.7875366,31.9433864 C73.7421109,32.0803961 73.6512594,32.2602214 73.6058337,32.3507456 C73.5591802,32.3507456 73.5591802,32.3960078 73.5591802,32.3960078 C73.4695564,32.486532 73.378705,32.5770563 73.2890812,32.6675806 C73.2890812,32.7568816 73.2436554,32.7568816 73.2436554,32.8021437 C73.1515762,32.8474058 73.0607248,32.9379301 72.971101,33.0284544 L72.8802495,33.0284544 C72.7439723,33.1189786 72.607695,33.2535417 72.5168436,33.3000272 L72.4726455,33.3000272 C72.4726455,33.3000272 72.4272198,33.3000272 72.4272198,33.3452893 C72.2455168,33.3452893 72.1546653,33.3905515 72.0638139,33.4345903 L71.9275366,33.4345903 C71.7912594,33.4798524 71.6562099,33.4798524 71.518705,33.4798524 C71.3836554,33.4798524 71.2019525,33.4798524 71.0656752,33.4345903 L70.9306257,33.4345903 C70.7931208,33.3905515 70.703497,33.3452893 70.6126455,33.3452893 C70.5672198,33.3000272 70.5672198,33.3000272 70.5217941,33.3000272 C70.3855168,33.2535417 70.2050416,33.1189786 70.1141901,33.0284544 L70.0687644,33.0284544 C69.9324871,32.9379301 69.8870614,32.8474058 69.7507842,32.8021437 C69.7053584,32.7568816 69.7053584,32.7568816 69.6611604,32.6675806 C69.5690812,32.5770563 69.5236554,32.486532 69.4340317,32.3960078 L69.4340317,32.3507456 C69.3431802,32.2602214 69.2977545,32.0803961 69.206903,31.9433864 L58.0518139,5.6020466 C57.5521307,4.38241553 58.0972396,2.89121165 59.4121307,2.39455146 C60.6361703,1.85262913 62.1327644,2.43981359 62.6312198,3.7047068 L71.518705,24.6243767 L77.368804,10.753367 C77.7776356,9.7588233 78.7291208,9.21690097 79.7272594,9.21690097 C80.6787446,9.21690097 81.6326851,9.7588233 82.0857149,10.753367 L87.9345861,24.6243767 L96.7778733,3.7047068 C97.3217545,2.43981359 98.7729228,1.85262913 100.087814,2.39455146 C101.311853,2.89121165 101.90116,4.38241553 101.357279,5.6020466" id="Fill-11"></path>
            <path d="M104.892998,25.6180641 C105.709434,24.6247437 107.206028,24.4889573 108.204166,25.3024524 C110.199216,26.9282194 113.645434,28.8267825 116.864523,28.7815204 C119.132127,28.7815204 121.17383,28.1038117 122.532919,27.109268 C123.894463,26.1147243 124.482543,24.9856175 124.482543,23.8565107 C124.482543,23.2693262 124.347493,22.861967 124.074939,22.4105689 C123.802384,21.9591709 123.39478,21.5077728 122.714622,21.0551515 C121.399731,20.1963942 119.177552,19.4281612 116.502345,18.931501 L116.411493,18.931501 C114.280166,18.5241417 112.285117,17.9834427 110.561394,17.1699476 C108.838899,16.3564524 107.342305,15.2261223 106.345394,13.6456175 C105.665236,12.5605495 105.30183,11.2956563 105.30183,9.94023883 C105.30183,7.22940388 106.84385,4.87944272 108.92975,3.3429767 C111.05985,1.80651068 113.825909,0.948976699 116.774899,0.948976699 C121.128404,0.948976699 124.347493,3.07140388 126.659295,4.56260777 C127.702859,5.28680194 128.02084,6.73274369 127.294028,7.77132621 C126.613869,8.85517087 125.163929,9.17200583 124.074939,8.44903495 C121.761909,6.91256893 119.540958,5.55837476 116.774899,5.55837476 C114.734424,5.55837476 112.91985,6.18959806 111.69581,7.09239417 C110.47177,7.99763689 109.973315,8.99095728 109.973315,9.94023883 C109.973315,10.4821612 110.062939,10.8442583 110.290067,11.205132 C110.515968,11.5672291 110.9248,11.973365 111.515335,12.3807243 C112.693949,13.1929961 114.734424,13.915967 117.182503,14.3685883 L117.273354,14.3685883 C119.586384,14.8199864 121.716483,15.4071709 123.531057,16.2647049 C125.38983,17.1699476 127.021473,18.3443165 128.066265,20.0165689 C128.746424,21.1004136 129.154028,22.4558311 129.154028,23.8565107 C129.154028,26.7483942 127.522384,29.2329184 125.253552,30.8599087 C123.031374,32.4856757 120.08484,33.4349573 116.864523,33.4349573 C111.968364,33.3909184 107.84076,30.9492097 105.256404,28.9160835 C104.258265,28.1038117 104.123216,26.6113845 104.892998,25.6180641" id="Fill-13"></path>
        </g>
        <g id="CBC-KIDS" transform="translate(89.188119, 17.076621)" fill="#000000">
            <path d="M64.8337545,19.9845049 L64.8337545,2.64299029 C64.8337545,1.78300971 65.5470614,1.0123301 66.4690812,1.0123301 C67.3923287,1.0123301 68.1056356,1.78300971 68.1056356,2.64299029 L68.1056356,11.1498252 L77.7457149,1.5163301 C78.4000911,0.86431068 79.4117347,0.86431068 80.0648832,1.5163301 C80.6910218,2.13899029 80.6910218,3.17634951 80.0648832,3.82836893 L73.5198931,10.3216505 L80.1250416,18.9459223 C80.7192594,19.6285243 80.601398,20.6671068 79.8880911,21.2298252 C79.5897545,21.4965049 79.2337149,21.615165 78.8457545,21.615165 C78.4000911,21.615165 77.9544277,21.4072039 77.6266257,21.0218641 L71.2007248,12.632466 L68.1056356,15.7751262 L68.1056356,19.9845049 C68.1056356,20.8738447 67.3923287,21.615165 66.4690812,21.615165 C65.5470614,21.615165 64.8337545,20.8738447 64.8337545,19.9845049" id="Fill-15"></path>
            <path d="M85.718301,2.4950932 C85.718301,1.57517087 86.4328356,0.86443301 87.3548554,0.86443301 C88.2474099,0.86443301 89.0196475,1.57517087 89.0196475,2.4950932 L89.0196475,19.9846272 C89.0196475,20.9033262 88.2474099,21.6152874 87.3548554,21.6152874 C86.4328356,21.6152874 85.718301,20.9033262 85.718301,19.9846272 L85.718301,2.4950932 Z" id="Fill-17"></path>
            <path d="M97.8863842,18.3239961 L99.7304238,18.3239961 C103.657909,18.2958602 106.811929,15.1519767 106.811929,11.210501 C106.811929,7.32652039 103.657909,4.15450097 99.7304238,4.15450097 L97.8863842,4.15450097 L97.8863842,18.3239961 Z M94.5838099,19.9840155 L94.5838099,2.49570485 C94.5838099,1.57578252 95.2983446,0.86504466 96.2203644,0.86504466 L99.7304238,0.86504466 C105.472483,0.86504466 110.113275,5.51848155 110.113275,11.210501 C110.113275,16.9612388 105.472483,21.6146757 99.7304238,21.6146757 L96.2203644,21.6146757 C95.2983446,21.6146757 94.5838099,20.8733553 94.5838099,19.9840155 Z" id="Fill-19"></path>
            <path d="M113.237707,16.4567495 C113.772994,15.8047301 114.753945,15.7166524 115.409549,16.2487883 C116.718301,17.3167301 118.979766,18.5620505 121.09145,18.531468 C122.578222,18.531468 123.917667,18.0874097 124.810222,17.4353903 C125.702776,16.7833709 126.089509,16.0420505 126.089509,15.3007301 C126.089509,14.9153903 126.001113,14.6474874 125.821865,14.3514485 C125.642618,14.0554097 125.376202,13.7593709 124.929311,13.463332 C124.066222,12.8993903 122.608915,12.3966136 120.853271,12.0699922 L120.793113,12.0699922 C119.395964,11.8020893 118.085984,11.447332 116.955251,10.9139728 C115.824519,10.3793903 114.844796,9.6392932 114.189192,8.60071068 C113.743529,7.88997282 113.50535,7.05935146 113.50535,6.17123495 C113.50535,4.39255534 114.516994,2.84997282 115.884677,1.84319612 C117.283053,0.833972816 119.097628,0.27247767 121.032519,0.27247767 C123.888202,0.27247767 126.001113,1.66459417 127.51735,2.64323495 C128.201192,3.11787573 128.409905,4.06593398 127.934776,4.74731262 C127.487885,5.45927379 126.5364,5.66723495 125.821865,5.19259417 C124.3044,4.18459417 122.847093,3.29525437 121.032519,3.29525437 C119.693073,3.29525437 118.50341,3.7099534 117.700479,4.30203107 C116.896321,4.89655534 116.569747,5.54735146 116.569747,6.17123495 C116.569747,6.52599223 116.628677,6.76331262 116.778459,7.00063301 C116.927014,7.2379534 117.194657,7.50463301 117.58139,7.77131262 C118.354855,8.30467184 119.693073,8.77931262 121.298935,9.07535146 L121.359093,9.07535146 C122.876558,9.37261359 124.274935,9.7567301 125.464598,10.3206718 C126.684954,10.9139728 127.755529,11.6846524 128.440598,12.7807301 C128.886261,13.4926913 129.153905,14.3820311 129.153905,15.3007301 C129.153905,17.1968466 128.083331,18.8275068 126.595331,19.8966718 C125.136796,20.9633903 123.203133,21.5848272 121.09145,21.5848272 C117.878499,21.555468 115.17137,19.954167 113.474657,18.6207689 C112.820281,18.0874097 112.731885,17.1087689 113.237707,16.4567495" id="Fill-21"></path>
            <path d="M0.685239604,10.9448 C0.713477228,5.04726602 5.67593267,0.251926214 11.6549426,0.221343689 C14.2847248,0.221343689 16.675101,1.08621748 18.5584277,2.54439223 C19.2766455,3.14136311 19.3957347,4.18239223 18.8579921,4.92615922 C18.2588634,5.67237282 17.1539129,5.79103301 16.4663881,5.25522718 C15.151497,4.18239223 13.5075762,3.61845049 11.6549426,3.61845049 C9.59236832,3.61845049 7.67834851,4.44907184 6.27383366,5.76167379 C4.9282495,7.13299417 4.0921703,8.91779029 4.0921703,10.9448 C4.0921703,12.9681398 4.9282495,14.814101 6.27383366,16.1254796 C7.67834851,17.4368583 9.59236832,18.2687029 11.6549426,18.2687029 C13.5075762,18.2687029 15.1220317,17.7035379 16.4663881,16.6319262 C17.1539129,16.1254796 18.2588634,16.2441398 18.8579921,16.9597709 C19.3957347,17.7035379 19.2766455,18.7751495 18.5584277,19.3415379 C16.675101,20.8009359 14.2847248,21.6645864 11.6549426,21.6645864 C5.67593267,21.6645864 0.713477228,16.8692466 0.685239604,10.9448" id="Fill-23"></path>
            <path d="M26.1737465,18.3586155 L29.9109347,18.3586155 C31.6137861,18.3292563 32.9888356,16.9885184 32.9888356,15.2612175 C32.9888356,13.5632757 31.6137861,12.2225379 29.9109347,12.1944019 L26.1737465,12.1944019 L26.1737465,18.3586155 Z M26.1737465,8.88781942 L28.744598,8.88781942 C30.0594891,8.88781942 31.1055089,7.78440194 31.1055089,6.4766932 C31.1055089,5.16653786 30.0594891,4.12183883 28.744598,4.12183883 L26.1737465,4.12183883 L26.1737465,8.88781942 Z M22.8564396,20.0259748 L22.8564396,2.45570291 C22.8564396,1.53211068 23.6041228,0.816479612 24.5003604,0.816479612 L24.5899842,0.816479612 L24.6194495,0.816479612 L28.744598,0.816479612 C31.8826574,0.816479612 34.4240436,3.34748932 34.4240436,6.4766932 C34.4240436,7.75748932 34.0053901,8.91717864 33.2871723,9.8713534 C35.082103,11.0016835 36.3061426,12.999334 36.3061426,15.2612175 C36.3061426,18.8051204 33.4369545,21.6639748 29.9109347,21.6639748 L24.6194495,21.6639748 C24.5899842,21.6639748 24.5899842,21.6346155 24.5899842,21.6346155 C24.5298257,21.6346155 24.5298257,21.6639748 24.5003604,21.6639748 C23.6041228,21.6639748 22.8564396,20.9214311 22.8564396,20.0259748 Z" id="Fill-25"></path>
            <path d="M38.4844911,10.9448 C38.5127287,5.04726602 43.4751842,0.251926214 49.4541941,0.221343689 C52.0839762,0.221343689 54.4743525,1.08621748 56.3576792,2.54439223 C57.075897,3.14136311 57.1949861,4.18239223 56.6572436,4.92615922 C56.0581149,5.67237282 54.9531644,5.79103301 54.2656396,5.25522718 C52.9495208,4.18239223 51.3068277,3.61845049 49.4541941,3.61845049 C47.3916198,3.61845049 45.4776,4.44907184 44.0743129,5.76167379 C42.727501,7.13299417 41.8914218,8.91779029 41.8914218,10.9448 C41.8914218,12.9681398 42.727501,14.814101 44.0743129,16.1254796 C45.4776,17.4368583 47.3916198,18.2687029 49.4541941,18.2687029 C51.3068277,18.2687029 52.9200554,17.7035379 54.2656396,16.6319262 C54.9531644,16.1254796 56.0581149,16.2441398 56.6572436,16.9597709 C57.1949861,17.7035379 57.075897,18.7751495 56.3576792,19.3415379 C54.4743525,20.8009359 52.0839762,21.6645864 49.4541941,21.6645864 C43.4751842,21.6645864 38.5127287,16.8692466 38.4844911,10.9448" id="Fill-27"></path>
        </g>
        <g id="CBC-gem" transform="translate(17.188119, 16.076621)" fill="#EE2424">
            <path d="M30.8947842,42.7171806 C36.9867446,42.7171806 41.9246455,37.7970641 41.9246455,31.7270447 C41.9246455,25.6570252 36.9867446,20.7344621 30.8947842,20.7344621 C24.8040515,20.7344621 19.8649228,25.6570252 19.8649228,31.7270447 C19.8649228,37.7970641 24.8040515,42.7171806 30.8947842,42.7171806" id="Fill-29"></path>
            <path d="M18.1582653,42.7148563 C12.066305,42.7148563 7.12717624,37.7959631 7.12717624,31.727167 C7.12717624,25.6571476 12.066305,20.7321379 18.1582653,20.7321379 L18.1582653,42.7148563 Z" id="Fill-31"></path>
            <path d="M43.6287248,54.8438854 L43.6324079,44.4140214 L54.1024277,44.4189146 C54.1024277,50.184332 49.4174376,54.8438854 43.6287248,54.8438854" id="Fill-33"></path>
            <path d="M18.1582653,8.6021301 L18.1582653,19.0430039 L7.67596832,19.0442272 C7.67596832,13.2788097 12.3707802,8.6021301 18.1582653,8.6021301" id="Fill-35"></path>
            <path d="M18.1570376,54.8438854 L18.1582653,44.4140214 L7.67842376,44.4189146 C7.67842376,50.184332 12.3707802,54.8438854 18.1570376,54.8438854" id="Fill-37"></path>
            <path d="M56.3723644,41.1725184 L56.3699089,22.2835282 C59.5975921,24.2004408 61.7608396,27.708868 61.7608396,31.7261883 C61.7608396,35.7422854 59.5988198,39.2556058 56.3723644,41.1725184" id="Fill-39"></path>
            <path d="M21.4157822,6.34073592 L40.3730495,6.34562913 C38.4504356,3.12834757 34.9268713,0.972891262 30.8962574,0.972891262 C26.8656436,0.972891262 23.3396238,3.12590097 21.4157822,6.34073592" id="Fill-41"></path>
            <path d="M40.2333347,57.1112738 L21.2748396,57.1063806 C23.1986812,60.3236621 26.7222455,62.4803417 30.7528594,62.4803417 C34.7834733,62.4803417 38.3094931,60.3261087 40.2333347,57.1112738" id="Fill-43"></path>
            <path d="M41.9239089,44.4172019 C41.9239089,50.4872214 36.9872356,55.4085612 30.8952752,55.4085612 C24.8045426,55.4085612 19.8617307,50.4872214 19.8617307,44.4172019 L41.9239089,44.4172019 Z" id="Fill-45"></path>
            <path d="M43.6347406,42.7148563 C49.726701,42.7148563 54.6633743,37.7959631 54.6633743,31.727167 C54.6633743,25.6571476 49.726701,20.7321379 43.6347406,20.7321379 L43.6347406,42.7148563 Z" id="Fill-47"></path>
            <path d="M41.9239089,19.0563379 C41.9239089,12.9863184 36.9872356,8.06620194 30.8952752,8.06620194 C24.8045426,8.06620194 19.8617307,12.9863184 19.8617307,19.0563379 L41.9239089,19.0563379 Z" id="Fill-49"></path>
            <path d="M5.41941386,41.1725184 L5.42186931,22.2835282 C2.19418614,24.2004408 0.0309386139,27.708868 0.0309386139,31.7261883 C0.0309386139,35.7422854 2.19295842,39.2556058 5.41941386,41.1725184" id="Fill-51"></path>
            <path d="M54.102796,19.0480194 L43.6327762,19.0431262 L43.6290931,8.61203883 C49.4178059,8.61203883 54.102796,13.2801553 54.102796,19.0480194" id="Fill-53"></path>
        </g>
    </g>
</svg>
